# Blender v3.2.0 OBJ File: 'door.blend'
# www.blender.org
o door_03
v -0.419000 -0.000000 0.022000
v -0.419000 1.981000 0.022000
v 0.419000 -0.000000 0.022000
v 0.419000 1.981000 0.022000
v -0.280301 -0.000000 0.022000
v -0.280301 1.981000 0.022000
v 0.280300 -0.000000 0.022000
v 0.280301 1.981000 0.022000
v -0.419000 1.864313 0.022000
v 0.419000 1.864313 0.022000
v 0.054832 1.864313 0.022000
v 0.419000 0.172371 0.022000
v -0.419000 0.172371 0.022000
v 0.054832 0.172371 0.022000
v 0.164495 -0.000000 0.022000
v 0.054832 -0.000000 0.022000
v 0.274158 0.178513 0.013877
v -0.054832 -0.000000 0.022000
v -0.164495 1.981000 0.022000
v -0.054832 1.981000 0.022000
v 0.054832 1.981000 0.022000
v 0.164495 1.981000 0.022000
v -0.164495 -0.000000 0.022000
v -0.054832 1.864313 0.022000
v 0.164495 0.172371 0.022000
v 0.280300 1.864313 0.022000
v 0.164495 1.864313 0.022000
v 0.280300 0.172371 0.022000
v -0.164495 1.864313 0.022000
v -0.280301 1.864313 0.022000
v -0.280301 0.172371 0.022000
v -0.164495 0.172371 0.022000
v -0.054832 0.172371 0.022000
v 0.274158 1.858171 0.013877
v -0.274158 0.178513 0.013877
v 0.271873 0.182963 0.017277
v 0.271873 1.854058 0.017277
v 0.166779 1.854058 0.017277
v 0.166779 0.182963 0.017277
v -0.164495 0.178513 0.013877
v -0.164495 1.858171 0.013877
v -0.274158 1.858171 0.013877
v -0.166779 0.182963 0.017277
v -0.166779 1.854058 0.017277
v -0.271873 1.854058 0.017277
v -0.271873 0.182963 0.017277
v -0.057116 0.182963 0.017277
v -0.057116 1.854058 0.017277
v -0.162210 1.854058 0.017277
v -0.162210 0.182963 0.017277
v 0.054832 1.858171 0.013877
v -0.054832 1.858171 0.013877
v -0.054832 0.178513 0.013877
v 0.052547 0.182963 0.017277
v 0.052547 1.854058 0.017277
v -0.052547 1.854058 0.017277
v -0.052547 0.182963 0.017277
v 0.164495 0.178513 0.013877
v 0.164495 1.858171 0.013877
v 0.054832 0.178513 0.013877
v 0.162210 0.182963 0.017277
v 0.162210 1.854058 0.017277
v 0.057116 1.854058 0.017277
v 0.057116 0.182963 0.017277
v -0.419000 -0.000000 -0.022000
v -0.419000 1.981000 -0.022000
v 0.419000 -0.000000 -0.022000
v 0.419000 1.981000 -0.022000
v -0.280301 -0.000000 -0.022000
v -0.280301 1.981000 -0.022000
v 0.280300 -0.000000 -0.022000
v 0.280301 1.981000 -0.022000
v -0.419000 1.864313 -0.022000
v 0.419000 1.864313 -0.022000
v 0.054832 1.864313 -0.022000
v 0.419000 0.172371 -0.022000
v -0.419000 0.172371 -0.022000
v 0.054832 0.172371 -0.022000
v 0.164495 -0.000000 -0.022000
v 0.054832 -0.000000 -0.022000
v 0.274158 0.178513 -0.013877
v -0.054832 -0.000000 -0.022000
v -0.164495 1.981000 -0.022000
v -0.054832 1.981000 -0.022000
v 0.054832 1.981000 -0.022000
v 0.164495 1.981000 -0.022000
v -0.164495 -0.000000 -0.022000
v -0.054832 1.864313 -0.022000
v 0.164495 0.172371 -0.022000
v 0.280300 1.864313 -0.022000
v 0.164495 1.864313 -0.022000
v 0.280300 0.172371 -0.022000
v -0.164495 1.864313 -0.022000
v -0.280301 1.864313 -0.022000
v -0.280301 0.172371 -0.022000
v -0.164495 0.172371 -0.022000
v -0.054832 0.172371 -0.022000
v 0.274158 1.858171 -0.013877
v -0.274158 0.178513 -0.013877
v 0.271873 0.182963 -0.017277
v 0.271873 1.854058 -0.017277
v 0.166779 1.854058 -0.017277
v 0.166779 0.182963 -0.017277
v -0.164495 0.178513 -0.013877
v -0.164495 1.858171 -0.013877
v -0.274158 1.858171 -0.013877
v -0.166779 0.182963 -0.017277
v -0.166779 1.854058 -0.017277
v -0.271873 1.854058 -0.017277
v -0.271873 0.182963 -0.017277
v -0.057116 0.182963 -0.017277
v -0.057116 1.854058 -0.017277
v -0.162210 1.854058 -0.017277
v -0.162210 0.182963 -0.017277
v 0.054832 1.858171 -0.013877
v -0.054832 1.858171 -0.013877
v -0.054832 0.178513 -0.013877
v 0.052547 0.182963 -0.017277
v 0.052547 1.854058 -0.017277
v -0.052547 1.854058 -0.017277
v -0.052547 0.182963 -0.017277
v 0.164495 0.178513 -0.013877
v 0.164495 1.858171 -0.013877
v 0.054832 0.178513 -0.013877
v 0.162210 0.182963 -0.017277
v 0.162210 1.854058 -0.017277
v 0.057116 1.854058 -0.017277
v 0.057116 0.182963 -0.017277
vt 0.967436 0.420368
vt 0.945700 0.420368
vt 0.945700 0.351850
vt 0.967436 0.351850
vt 0.864601 0.934920
vt 0.864986 0.993339
vt 0.795546 0.993796
vt 0.795288 0.935009
vt 0.935434 0.983621
vt 0.913693 0.983621
vt 0.913693 0.898450
vt 0.935434 0.898450
vt 0.967436 0.849959
vt 0.945700 0.849959
vt 0.945700 0.781442
vt 0.967436 0.781442
vt 0.900333 0.983621
vt 0.878597 0.983621
vt 0.878597 0.898470
vt 0.900333 0.898470
vt 0.570348 0.994626
vt 0.511772 0.994043
vt 0.511981 0.935214
vt 0.570690 0.935713
vt 0.967436 0.240468
vt 0.945700 0.240468
vt 0.945700 0.186295
vt 0.967436 0.186295
vt 0.681195 0.091763
vt 0.625959 0.091736
vt 0.625897 0.004788
vt 0.681362 0.004830
vt 0.570720 0.091812
vt 0.512084 0.092163
vt 0.511966 0.005266
vt 0.570443 0.004929
vt 0.795024 0.092297
vt 0.864400 0.092333
vt 0.736419 0.091891
vt 0.736794 0.005052
vt 0.967436 0.670062
vt 0.945700 0.670062
vt 0.945700 0.615889
vt 0.967436 0.615889
vt 0.442630 0.935153
vt 0.442658 0.092176
vt 0.737034 0.994437
vt 0.681499 0.994759
vt 0.681316 0.935791
vt 0.736605 0.935573
vt 0.967436 0.294642
vt 0.945700 0.294642
vt 0.967436 0.132121
vt 0.945700 0.132121
vt 0.945700 0.074913
vt 0.967436 0.074913
vt 0.442275 0.005541
vt 0.625924 0.994825
vt 0.625995 0.935840
vt 0.967436 0.724235
vt 0.945700 0.724235
vt 0.900333 0.062650
vt 0.878597 0.062650
vt 0.878597 0.005008
vt 0.900333 0.005008
vt 0.913694 0.062440
vt 0.935434 0.062440
vt 0.945700 0.561716
vt 0.967436 0.561716
vt 0.945700 0.504508
vt 0.967436 0.504508
vt 0.945700 0.006395
vt 0.967436 0.006395
vt 0.864838 0.005822
vt 0.795227 0.005470
vt 0.442275 0.993621
vt 0.945700 0.435991
vt 0.967436 0.435991
vt 0.913694 0.004785
vt 0.935435 0.004785
vt 0.626008 0.930691
vt 0.681293 0.930644
vt 0.736329 0.096904
vt 0.681180 0.096890
vt 0.736506 0.930545
vt 0.791299 0.930821
vt 0.791066 0.096504
vt 0.570782 0.930679
vt 0.516047 0.096388
vt 0.515965 0.931020
vt 0.570807 0.096829
vt 0.625969 0.096864
vt 0.737983 0.928252
vt 0.737789 0.099327
vt 0.789620 0.099123
vt 0.789851 0.928391
vt 0.517433 0.928565
vt 0.517494 0.099021
vt 0.569344 0.099239
vt 0.569320 0.928408
vt 0.572366 0.928315
vt 0.572369 0.099360
vt 0.624406 0.099377
vt 0.624443 0.928329
vt 0.627607 0.928313
vt 0.627545 0.099394
vt 0.679603 0.099404
vt 0.679711 0.928296
vt 0.682875 0.928254
vt 0.682741 0.099418
vt 0.734767 0.099420
vt 0.734940 0.928210
vt 0.007191 0.935067
vt 0.076529 0.935133
vt 0.076305 0.993944
vt 0.006830 0.993515
vt 0.301592 0.994480
vt 0.301168 0.935592
vt 0.359863 0.935028
vt 0.360124 0.993833
vt 0.190506 0.091695
vt 0.190414 0.004763
vt 0.245869 0.004783
vt 0.245732 0.091703
vt 0.300946 0.091813
vt 0.301294 0.004984
vt 0.359724 0.005381
vt 0.359542 0.092203
vt 0.007235 0.092183
vt 0.076653 0.092163
vt 0.135278 0.091790
vt 0.134973 0.004923
vt 0.428922 0.092230
vt 0.429189 0.934936
vt 0.134851 0.994542
vt 0.135228 0.935651
vt 0.190533 0.935815
vt 0.190418 0.994808
vt 0.429338 0.005716
vt 0.246025 0.994800
vt 0.245866 0.935799
vt 0.006830 0.005569
vt 0.076509 0.005278
vt 0.429580 0.993368
vt 0.245844 0.930647
vt 0.190550 0.930665
vt 0.135366 0.096806
vt 0.190518 0.096823
vt 0.135323 0.930621
vt 0.080513 0.930945
vt 0.080615 0.096384
vt 0.301069 0.930561
vt 0.355584 0.096408
vt 0.355876 0.930841
vt 0.300857 0.096826
vt 0.245718 0.096830
vt 0.133862 0.928347
vt 0.081979 0.928495
vt 0.082048 0.098997
vt 0.133901 0.099216
vt 0.354425 0.928408
vt 0.302548 0.928269
vt 0.302300 0.099229
vt 0.354139 0.099027
vt 0.299501 0.928223
vt 0.247427 0.928261
vt 0.247262 0.099338
vt 0.299295 0.099341
vt 0.244260 0.928292
vt 0.192151 0.928294
vt 0.192077 0.099332
vt 0.244141 0.099343
vt 0.188984 0.928296
vt 0.136907 0.928265
vt 0.136913 0.099317
vt 0.188954 0.099335
vn 0.0000 1.0000 0.0000
vn 0.0000 0.0000 1.0000
vn 1.0000 0.0000 0.0000
vn 0.0000 -1.0000 0.0000
vn -1.0000 0.0000 0.0000
vn 0.0000 -0.7976 0.6032
vn 0.0000 0.7976 0.6032
vn 0.0000 -0.7976 0.6031
vn 0.7976 0.0000 0.6032
vn -0.7976 0.0000 0.6032
vn 0.8301 0.0000 0.5577
vn 0.0000 0.6372 0.7707
vn -0.8301 0.0000 0.5577
vn -0.0000 -0.6072 0.7946
vn 0.0000 0.0000 -1.0000
vn 0.0000 -0.7976 -0.6032
vn 0.0000 0.7976 -0.6032
vn 0.0000 -0.7976 -0.6031
vn 0.7976 0.0000 -0.6032
vn -0.7976 0.0000 -0.6032
vn 0.8301 0.0000 -0.5577
vn 0.0000 0.6372 -0.7707
vn -0.8301 0.0000 -0.5577
vn -0.0000 -0.6072 -0.7946
s off
f 4/1/1 68/2/1 72/3/1 8/4/1
f 10/5/2 4/6/2 8/7/2 26/8/2
f 3/9/3 67/10/3 76/11/3 12/12/3
f 1/13/4 65/14/4 69/15/4 5/16/4
f 65/17/5 1/18/5 13/19/5 77/20/5
f 19/21/2 6/22/2 30/23/2 29/24/2
f 21/25/1 85/26/1 84/27/1 20/28/1
f 14/29/2 33/30/2 18/31/2 16/32/2
f 32/33/2 31/34/2 5/35/2 23/36/2
f 10/5/2 26/8/2 28/37/2 12/38/2
f 25/39/2 14/29/2 16/32/2 15/40/2
f 18/41/4 82/42/4 80/43/4 16/44/4
f 31/34/2 30/23/2 9/45/2 13/46/2
f 22/47/2 21/48/2 11/49/2 27/50/2
f 22/51/1 86/52/1 85/26/1 21/25/1
f 19/53/1 83/54/1 70/55/1 6/56/1
f 5/35/2 31/34/2 13/46/2 1/57/2
f 20/58/2 19/21/2 29/24/2 24/59/2
f 23/60/4 87/61/4 82/42/4 18/41/4
f 73/62/5 9/63/5 2/64/5 66/65/5
f 8/7/2 22/47/2 27/50/2 26/8/2
f 12/12/3 76/11/3 74/66/3 10/67/3
f 16/44/4 80/43/4 79/68/4 15/69/4
f 21/48/2 20/58/2 24/59/2 11/49/2
f 33/30/2 32/33/2 23/36/2 18/31/2
f 15/69/4 79/68/4 71/70/4 7/71/4
f 6/56/1 70/55/1 66/72/1 2/73/1
f 3/74/2 12/38/2 28/37/2 7/75/2
f 8/4/1 72/3/1 86/52/1 22/51/1
f 30/23/2 6/22/2 2/76/2 9/45/2
f 7/71/4 71/70/4 67/77/4 3/78/4
f 10/67/3 74/66/3 68/79/3 4/80/3
f 73/62/5 77/20/5 13/19/5 9/63/5
f 5/16/4 69/15/4 87/61/4 23/60/4
f 28/37/2 25/39/2 15/40/2 7/75/2
f 52/81/6 51/82/6 11/49/6 24/59/6
f 58/83/7 60/84/7 14/29/7 25/39/7
f 59/85/8 34/86/8 26/8/8 27/50/8
f 17/87/7 58/83/7 25/39/7 28/37/7
f 41/88/6 52/81/6 24/59/6 29/24/6
f 35/89/9 42/90/9 30/23/9 31/34/9
f 51/82/6 59/85/6 27/50/6 11/49/6
f 34/86/10 17/87/10 28/37/10 26/8/10
f 40/91/7 35/89/7 31/34/7 32/33/7
f 42/90/8 41/88/8 29/24/8 30/23/8
f 53/92/7 40/91/7 32/33/7 33/30/7
f 60/84/7 53/92/7 33/30/7 14/29/7
f 38/93/2 39/94/2 36/95/2 37/96/2
f 17/87/11 34/86/11 37/96/11 36/95/11
f 34/86/12 59/85/12 38/93/12 37/96/12
f 59/85/13 58/83/13 39/94/13 38/93/13
f 58/83/14 17/87/14 36/95/14 39/94/14
f 45/97/2 46/98/2 43/99/2 44/100/2
f 40/91/11 41/88/11 44/100/11 43/99/11
f 41/88/12 42/90/12 45/97/12 44/100/12
f 42/90/13 35/89/13 46/98/13 45/97/13
f 35/89/14 40/91/14 43/99/14 46/98/14
f 49/101/2 50/102/2 47/103/2 48/104/2
f 53/92/11 52/81/11 48/104/11 47/103/11
f 52/81/12 41/88/12 49/101/12 48/104/12
f 41/88/13 40/91/13 50/102/13 49/101/13
f 40/91/14 53/92/14 47/103/14 50/102/14
f 56/105/2 57/106/2 54/107/2 55/108/2
f 60/84/11 51/82/11 55/108/11 54/107/11
f 51/82/12 52/81/12 56/105/12 55/108/12
f 52/81/13 53/92/13 57/106/13 56/105/13
f 53/92/14 60/84/14 54/107/14 57/106/14
f 63/109/2 64/110/2 61/111/2 62/112/2
f 58/83/11 59/85/11 62/112/11 61/111/11
f 59/85/12 51/82/12 63/109/12 62/112/12
f 51/82/13 60/84/13 64/110/13 63/109/13
f 60/84/14 58/83/14 61/111/14 64/110/14
f 74/113/15 90/114/15 72/115/15 68/116/15
f 83/117/15 93/118/15 94/119/15 70/120/15
f 78/121/15 80/122/15 82/123/15 97/124/15
f 96/125/15 87/126/15 69/127/15 95/128/15
f 74/113/15 76/129/15 92/130/15 90/114/15
f 89/131/15 79/132/15 80/122/15 78/121/15
f 95/128/15 77/133/15 73/134/15 94/119/15
f 86/135/15 91/136/15 75/137/15 85/138/15
f 69/127/15 65/139/15 77/133/15 95/128/15
f 84/140/15 88/141/15 93/118/15 83/117/15
f 72/115/15 90/114/15 91/136/15 86/135/15
f 85/138/15 75/137/15 88/141/15 84/140/15
f 97/124/15 82/123/15 87/126/15 96/125/15
f 67/142/15 71/143/15 92/130/15 76/129/15
f 94/119/15 73/134/15 66/144/15 70/120/15
f 92/130/15 71/143/15 79/132/15 89/131/15
f 116/145/16 88/141/16 75/137/16 115/146/16
f 122/147/17 89/131/17 78/121/17 124/148/17
f 123/149/18 91/136/18 90/114/18 98/150/18
f 81/151/17 92/130/17 89/131/17 122/147/17
f 105/152/16 93/118/16 88/141/16 116/145/16
f 99/153/19 95/128/19 94/119/19 106/154/19
f 115/146/16 75/137/16 91/136/16 123/149/16
f 98/150/20 90/114/20 92/130/20 81/151/20
f 104/155/17 96/125/17 95/128/17 99/153/17
f 106/154/18 94/119/18 93/118/18 105/152/18
f 117/156/17 97/124/17 96/125/17 104/155/17
f 124/148/17 78/121/17 97/124/17 117/156/17
f 102/157/15 101/158/15 100/159/15 103/160/15
f 81/151/21 100/159/21 101/158/21 98/150/21
f 98/150/22 101/158/22 102/157/22 123/149/22
f 123/149/23 102/157/23 103/160/23 122/147/23
f 122/147/24 103/160/24 100/159/24 81/151/24
f 109/161/15 108/162/15 107/163/15 110/164/15
f 104/155/21 107/163/21 108/162/21 105/152/21
f 105/152/22 108/162/22 109/161/22 106/154/22
f 106/154/23 109/161/23 110/164/23 99/153/23
f 99/153/24 110/164/24 107/163/24 104/155/24
f 113/165/15 112/166/15 111/167/15 114/168/15
f 117/156/21 111/167/21 112/166/21 116/145/21
f 116/145/22 112/166/22 113/165/22 105/152/22
f 105/152/23 113/165/23 114/168/23 104/155/23
f 104/155/24 114/168/24 111/167/24 117/156/24
f 120/169/15 119/170/15 118/171/15 121/172/15
f 124/148/21 118/171/21 119/170/21 115/146/21
f 115/146/22 119/170/22 120/169/22 116/145/22
f 116/145/23 120/169/23 121/172/23 117/156/23
f 117/156/24 121/172/24 118/171/24 124/148/24
f 127/173/15 126/174/15 125/175/15 128/176/15
f 122/147/21 125/175/21 126/174/21 123/149/21
f 123/149/22 126/174/22 127/173/22 115/146/22
f 115/146/23 127/173/23 128/176/23 124/148/23
f 124/148/24 128/176/24 125/175/24 122/147/24
f 20/28/1 84/27/1 83/54/1 19/53/1
