{
  "accessors": [
    {
      "bufferView": 0,
      "byteOffset": 0,
      "componentType": 5123,
      "count": 36,
      "max": [35],
      "min": [0],
      "type": "SCALAR"
    },
    {
      "bufferView": 1,
      "byteOffset": 0,
      "componentType": 5126,
      "count": 36,
      "max": [1.0, 1.0, 1.000001],
      "min": [-1.0, -1.0, -1.0],
      "type": "VEC3"
    },
    {
      "bufferView": 2,
      "byteOffset": 0,
      "componentType": 5126,
      "count": 36,
      "max": [1.0, 1.0, 1.0],
      "min": [-1.0, -1.0, -1.0],
      "type": "VEC3"
    },
    {
      "bufferView": 3,
      "byteOffset": 0,
      "componentType": 5126,
      "count": 36,
      "max": [1.0, -0.0, -0.0, 1.0],
      "min": [0.0, -0.0, -1.0, -1.0],
      "type": "VEC4"
    },
    {
      "bufferView": 4,
      "byteOffset": 0,
      "componentType": 5126,
      "count": 36,
      "max": [1.0, 1.0],
      "min": [-1.0, -1.0],
      "type": "VEC2"
    }
  ],
  "asset": {
    "generator": "VKTS glTF 2.0 exporter",
    "version": "2.0"
  },
  "bufferViews": [
    {
      "buffer": 0,
      "byteLength": 72,
      "byteOffset": 0,
      "target": 34963
    },
    {
      "buffer": 0,
      "byteLength": 432,
      "byteOffset": 72,
      "target": 34962
    },
    {
      "buffer": 0,
      "byteLength": 432,
      "byteOffset": 504,
      "target": 34962
    },
    {
      "buffer": 0,
      "byteLength": 576,
      "byteOffset": 936,
      "target": 34962
    },
    {
      "buffer": 0,
      "byteLength": 288,
      "byteOffset": 1512,
      "target": 34962
    }
  ],
  "buffers": [
    {
      "byteLength": 1800,
      "uri": "Cube.bin"
    }
  ],
  "images": [
    {
      "uri": "Cube_BaseColor.png"
    },
    {
      "uri": "Cube_MetallicRoughness.png"
    }
  ],
  "materials": [
    {
      "name": "Cube",
      "pbrMetallicRoughness": {
        "baseColorTexture": {
          "index": 0
        },
        "metallicRoughnessTexture": {
          "index": 1
        }
      }
    }
  ],
  "meshes": [
    {
      "name": "Cube",
      "primitives": [
        {
          "attributes": {
            "NORMAL": 2,
            "POSITION": 1,
            "TANGENT": 3,
            "TEXCOORD_0": 4
          },
          "indices": 0,
          "material": 0,
          "mode": 4
        }
      ]
    }
  ],
  "nodes": [
    {
      "mesh": 0,
      "name": "Cube"
    }
  ],
  "samplers": [{}],
  "scene": 0,
  "scenes": [
    {
      "nodes": [0]
    }
  ],
  "textures": [
    {
      "sampler": 0,
      "source": 0
    },
    {
      "sampler": 0,
      "source": 1
    }
  ],
  "extensionsUsed": ["KHR_interactivity"],
  "extensions": {
    "KHR_interactivity": {
      "nodes": [
        {
          "id": 9,
          "type": "world/get",
          "values": [],
          "configuration": [
            {
              "id": "path",
              "value": "nodes/0/translation"
            }
          ],
          "flows": [],
          "metadata": {
            "positionX": "1869.6851257404824",
            "positionY": "-116.80364277896092"
          }
        },
        {
          "id": 10,
          "type": "customEvent/send",
          "values": [
            {
              "id": "float3ToLog",
              "node": 9,
              "socket": "value"
            }
          ],
          "configuration": [
            {
              "id": "customEvent",
              "value": 0
            }
          ],
          "flows": [],
          "metadata": {
            "positionX": "2362.8544812335363",
            "positionY": "-464.7354210879766"
          }
        },
        {
          "id": 7,
          "type": "world/get",
          "values": [],
          "configuration": [
            {
              "id": "path",
              "value": "nodes/0/rotation"
            }
          ],
          "flows": [],
          "metadata": {
            "positionX": "1671.7789766105834",
            "positionY": "-769.5747314412886"
          }
        },
        {
          "id": 8,
          "type": "customEvent/send",
          "values": [
            {
              "id": "float3ToLog",
              "node": 7,
              "socket": "value"
            }
          ],
          "configuration": [
            {
              "id": "customEvent",
              "value": 0
            }
          ],
          "flows": [],
          "metadata": {
            "positionX": "2238.3651293615035",
            "positionY": "-858.9517020160816"
          }
        },
        {
          "id": 2,
          "type": "world/set",
          "values": [
            {
              "id": "a",
              "value": [1.57, 0, 0, 1],
              "type": 5
            }
          ],
          "configuration": [
            {
              "id": "path",
              "value": "nodes/0/rotation"
            }
          ],
          "flows": [
            {
              "id": "out",
              "node": 8,
              "socket": "in"
            }
          ],
          "metadata": {
            "positionX": "1469.0847754856063",
            "positionY": "-1186.1352550130919"
          }
        },
        {
          "id": 3,
          "type": "world/set",
          "values": [
            {
              "id": "a",
              "value": [10, 20, 30],
              "type": 4
            }
          ],
          "configuration": [
            {
              "id": "path",
              "value": "nodes/0/translation"
            }
          ],
          "flows": [
            {
              "id": "out",
              "node": 10,
              "socket": "in"
            }
          ],
          "metadata": {
            "positionX": "1462.7007061588354",
            "positionY": "-297.68228200136275"
          }
        },
        {
          "id": 1,
          "type": "flow/sequence",
          "values": [],
          "configuration": [
            {
              "id": "numberOutputFlows",
              "value": 3
            }
          ],
          "flows": [
            {
              "id": "2",
              "node": 4,
              "socket": "in"
            },
            {
              "id": "1",
              "node": 3,
              "socket": "in"
            },
            {
              "id": "0",
              "node": 2,
              "socket": "in"
            }
          ],
          "metadata": {
            "positionX": "489.1301338262689",
            "positionY": "-450.8999458438651"
          }
        },
        {
          "id": 5,
          "type": "world/get",
          "values": [],
          "configuration": [
            {
              "id": "path",
              "value": "nodes/0/scale"
            }
          ],
          "flows": [],
          "metadata": {
            "positionX": "804.59375",
            "positionY": "582.609375"
          }
        },
        {
          "id": 6,
          "type": "customEvent/send",
          "values": [
            {
              "id": "float3ToLog",
              "node": 5,
              "socket": "value"
            }
          ],
          "configuration": [
            {
              "id": "customEvent",
              "value": 0
            }
          ],
          "flows": [],
          "metadata": {
            "positionX": "1589.1812856653175",
            "positionY": "478.7743975698712"
          }
        },
        {
          "id": 4,
          "type": "world/set",
          "values": [
            {
              "id": "a",
              "value": [4, 5, 6],
              "type": 4
            }
          ],
          "configuration": [
            {
              "id": "path",
              "value": "nodes/0/scale"
            }
          ],
          "flows": [
            {
              "id": "out",
              "node": 6,
              "socket": "in"
            }
          ],
          "metadata": {
            "positionX": "994.0560897785188",
            "positionY": "31.90807512304505"
          }
        },
        {
          "id": 0,
          "type": "lifecycle/onStart",
          "values": [],
          "configuration": [],
          "flows": [
            {
              "id": "out",
              "node": 1,
              "socket": "in"
            }
          ],
          "metadata": {
            "positionX": "54.44864077166517",
            "positionY": "-358.06924570662386"
          }
        }
      ],
      "variables": [],
      "customEvents": [
        {
          "id": "log",
          "values": [
            {
              "id": "float3ToLog",
              "type": 4,
              "description": ""
            }
          ]
        }
      ],
      "types": [
        {
          "signature": "bool"
        },
        {
          "signature": "int"
        },
        {
          "signature": "float"
        },
        {
          "signature": "float2"
        },
        {
          "signature": "float3"
        },
        {
          "signature": "float4"
        },
        {
          "signature": "float4x4"
        }
      ]
    }
  }
}
